<?xml version="1.0" encoding="utf-8"?>
<!-- Generator: Adobe Illustrator 17.0.0, SVG Export Plug-In . SVG Version: 6.00 Build 0)  -->
<!DOCTYPE svg PUBLIC "-//W3C//DTD SVG 1.1//EN" "http://www.w3.org/Graphics/SVG/1.1/DTD/svg11.dtd">
<svg version="1.1" id="Layer_1" xmlns="http://www.w3.org/2000/svg" xmlns:xlink="http://www.w3.org/1999/xlink" x="0px" y="0px"
	 width="400px" height="291px" viewBox="244 208 400 291" enable-background="new 0 0 400 291"
	 xml:space="preserve">
<!-- <path fill="#FFB000" d="M730.547,355.05c0,5.818-0.173,11.597-0.518,17.331c-0.838,14.272-2.726,28.262-5.581,41.894
	c-25.049,119.853-124.595,212.352-248,226.829c-11.13,1.306-22.451,1.978-33.926,1.978c-15.251,0-30.227-1.184-44.838-3.475
	c-137.786-21.53-243.194-140.736-243.194-284.557c0-159.072,128.954-288.026,288.032-288.026
	C601.593,67.025,730.547,195.978,730.547,355.05z"/>
<path fill="#E29700" d="M730.029,372.382c-0.838,14.272-2.726,28.262-5.581,41.894c-25.049,119.853-124.595,212.352-248,226.829
	c-11.13,1.306-22.451,1.978-33.926,1.978c-15.251,0-30.227-1.184-44.838-3.475L249.6,491.518c-3.181-3.578-5.126-8.288-5.126-13.472
	V229.527c0-11.2,9.069-20.262,20.269-20.262h162.125c5.242,0,10.029,1.99,13.619,5.261c0.07,0.051,0.122,0.109,0.179,0.166
	l1.03,1.03c0.051,0.051,0.109,0.115,0.166,0.173l19.168,19.162l34.784,0.589c0,0,26.547,0,45.517,21.811
	c2.342,2.637,18.189,17.76,55.353,18.47h30.707c4.045,0,7.705,1.606,10.394,4.211c0.115,0.102,0.23,0.218,0.333,0.326
	L730.029,372.382z"/> -->
<g>
	<path fill="#FFFFFF" d="M441.863,215.897c-0.056-0.057-0.113-0.121-0.17-0.178l-1.026-1.026c-0.056-0.057-0.113-0.113-0.178-0.17
		c-3.596-3.265-8.38-5.261-13.625-5.261h-162.12c-11.201,0-20.268,9.067-20.268,20.268v248.517c0,5.18,1.94,9.892,5.124,13.472
		c0.525,0.59,1.083,1.148,1.665,1.665c3.58,3.192,8.3,5.132,13.48,5.132h162.12c11.193,0,20.268-9.075,20.268-20.268V229.53
		C447.132,224.277,445.136,219.501,441.863,215.897z M344.919,215.307c3.176,0,5.746,2.57,5.746,5.746s-2.57,5.746-5.746,5.746
		c-3.176,0-5.746-2.57-5.746-5.746S341.743,215.307,344.919,215.307z M327.617,215.307c3.176,0,5.746,2.57,5.746,5.746
		s-2.57,5.746-5.746,5.746c-3.176,0-5.746-2.57-5.746-5.746S324.441,215.307,327.617,215.307z M311.261,215.307
		c3.176,0,5.746,2.57,5.746,5.746s-2.57,5.746-5.746,5.746c-3.176,0-5.746-2.57-5.746-5.746S308.085,215.307,311.261,215.307z
		 M282.337,214.354c12.082,0,21.868,9.795,21.868,21.868c0,12.082-9.787,21.868-21.868,21.868c-12.073,0-21.86-9.787-21.86-21.868
		C260.477,224.148,270.264,214.354,282.337,214.354z M285.433,436.59c-2.069,3.402-5.81,5.681-10.086,5.681
		c-6.514,0-11.791-5.285-11.791-11.799c0-4.267,2.271-8.017,5.673-10.086c1.786-1.083,3.879-1.705,6.118-1.705
		c6.514,0,11.791,5.285,11.791,11.791C287.138,432.711,286.515,434.804,285.433,436.59z M356.791,473.902
		c0,2.481-1.915,4.477-4.267,4.477h-55.826c-2.36,0-4.267-1.996-4.267-4.477v-21.626c0-2.457,1.875-4.445,4.21-4.477h55.883
		c2.352,0,4.267,2.004,4.267,4.477V473.902z M418.298,449.933c0,2.36-1.907,4.267-4.267,4.267h-11.734v11.734
		c0,2.36-1.907,4.267-4.259,4.267h-6.045c-2.36,0-4.267-1.907-4.267-4.267V454.2h-11.734c-2.36,0-4.267-1.907-4.267-4.267v-6.045
		c0-2.352,1.907-4.267,4.267-4.267h11.734v-11.726c0-2.36,1.907-4.267,4.267-4.267h6.045c2.352,0,4.259,1.907,4.259,4.267v11.726
		h11.734c2.36,0,4.267,1.915,4.267,4.267V449.933z M420.787,403.004c0,5.891-4.776,10.667-10.667,10.667H287.34l-25.489-25.489
		V288.152c0-1.956,0.525-3.79,1.455-5.366c1.843-3.168,5.277-5.301,9.213-5.301H410.12c1.05,0,2.061,0.154,3.014,0.436
		c3.467,1.018,6.206,3.75,7.217,7.217c0.283,0.954,0.436,1.964,0.436,3.014V403.004z"/>
	<g>
		<path d="M608.88,295.959h-121.6c-2.36,0-4.283,1.891-4.283,4.21v53.127c0,2.319,1.923,4.21,4.283,4.21h121.6
			c2.36,0,4.291-1.891,4.291-4.21v-53.127C613.172,297.85,611.24,295.959,608.88,295.959z M613.131,353.296
			c0,2.303-1.907,4.178-4.251,4.178h-121.6c-2.344,0-4.251-1.875-4.251-4.178v-53.127c0-2.303,1.907-4.178,4.251-4.178h121.6
			c2.344,0,4.251,1.875,4.251,4.178V353.296z"/>
	</g>
	<g>
		<path fill="#FFFFFF" d="M538.484,450.87h-48.593c-2.368,0-4.291,1.915-4.291,4.283v18.248c0,2.36,1.923,4.283,4.291,4.283h48.593
			c2.36,0,4.283-1.923,4.283-4.283v-18.248C542.767,452.785,540.844,450.87,538.484,450.87z M542.726,473.401
			c0,2.344-1.899,4.251-4.243,4.251h-48.593c-2.344,0-4.251-1.907-4.251-4.251v-18.248c0-2.344,1.907-4.251,4.251-4.251h48.593
			c2.344,0,4.243,1.907,4.243,4.251V473.401z"/>
	</g>
	<g>
		<path fill="#FFFFFF" d="M606.989,450.87h-48.593c-2.368,0-4.291,1.915-4.291,4.283v18.248c0,2.36,1.923,4.283,4.291,4.283h48.593
			c1.592,0,2.99-0.881,3.726-2.182c0.356-0.622,0.558-1.333,0.558-2.101v-18.248C611.272,452.785,609.349,450.87,606.989,450.87z
			 M611.24,473.401c0,0.752-0.194,1.455-0.549,2.069c-0.719,1.301-2.109,2.182-3.701,2.182h-48.593
			c-2.344,0-4.251-1.907-4.251-4.251v-18.248c0-2.344,1.907-4.251,4.251-4.251h48.593c2.344,0,4.251,1.907,4.251,4.251V473.401z"/>
	</g>
	<g>
		<path fill="#FFFFFF" d="M568.587,406.067h-23.945c-0.945,0-1.818,0.307-2.521,0.832c-1.067,0.776-1.762,2.037-1.762,3.451v1.188
			c0,2.36,1.923,4.283,4.283,4.283h23.945c2.36,0,4.283-1.923,4.283-4.283v-1.188C572.87,407.991,570.947,406.067,568.587,406.067z
			 M572.837,411.538c0,2.344-1.907,4.243-4.251,4.243h-23.945c-2.344,0-4.251-1.899-4.251-4.243v-1.188
			c0-1.406,0.687-2.659,1.745-3.426c0.703-0.517,1.568-0.824,2.505-0.824h23.945c2.344,0,4.251,1.907,4.251,4.251V411.538z"/>
	</g>
	<g>
		<path fill="#FFFFFF" d="M606.747,406.067H582.81c-2.368,0-4.283,1.923-4.283,4.283v1.188c0,2.36,1.915,4.283,4.283,4.283h23.937
			c2.36,0,4.291-1.923,4.291-4.283v-1.188C611.038,407.991,609.107,406.067,606.747,406.067z M610.997,411.538
			c0,2.344-1.907,4.243-4.251,4.243H582.81c-2.344,0-4.251-1.899-4.251-4.243v-1.188c0-2.344,1.907-4.251,4.251-4.251h23.937
			c2.344,0,4.251,1.907,4.251,4.251V411.538z"/>
	</g>
	<g>
		<path fill="#FFFFFF" d="M601.89,421.002c-4.388,0-7.96,3.572-7.96,7.96c0,4.38,3.572,7.952,7.96,7.952
			c4.388,0,7.96-3.572,7.96-7.952C609.85,424.573,606.278,421.002,601.89,421.002z M601.89,436.881c-4.364,0-7.92-3.556-7.92-7.92
			c0-4.372,3.556-7.928,7.92-7.928c4.372,0,7.928,3.556,7.928,7.928C609.818,433.326,606.262,436.881,601.89,436.881z"/>
	</g>
	<path fill="#FFFFFF" d="M608.88,295.959h-121.6c-2.36,0-4.283,1.891-4.283,4.21v53.127c0,2.319,1.923,4.21,4.283,4.21h121.6
		c2.36,0,4.291-1.891,4.291-4.21v-53.127C613.172,297.85,611.24,295.959,608.88,295.959z M613.131,353.296
		c0,2.303-1.907,4.178-4.251,4.178h-121.6c-2.344,0-4.251-1.875-4.251-4.178v-53.127c0-2.303,1.907-4.178,4.251-4.178h121.6
		c2.344,0,4.251,1.875,4.251,4.178V353.296z M606.989,450.87h-48.593c-2.368,0-4.291,1.915-4.291,4.283v18.248
		c0,2.36,1.923,4.283,4.291,4.283h48.593c1.592,0,2.99-0.881,3.726-2.182c0.356-0.622,0.558-1.333,0.558-2.101v-18.248
		C611.272,452.785,609.349,450.87,606.989,450.87z M611.24,473.401c0,0.752-0.194,1.455-0.549,2.069
		c-0.719,1.301-2.109,2.182-3.701,2.182h-48.593c-2.344,0-4.251-1.907-4.251-4.251v-18.248c0-2.344,1.907-4.251,4.251-4.251h48.593
		c2.344,0,4.251,1.907,4.251,4.251V473.401z M606.747,406.067H582.81c-2.368,0-4.283,1.923-4.283,4.283v1.188
		c0,2.36,1.915,4.283,4.283,4.283h23.937c2.36,0,4.291-1.923,4.291-4.283v-1.188C611.038,407.991,609.107,406.067,606.747,406.067z
		 M610.997,411.538c0,2.344-1.907,4.243-4.251,4.243H582.81c-2.344,0-4.251-1.899-4.251-4.243v-1.188
		c0-2.344,1.907-4.251,4.251-4.251h23.937c2.344,0,4.251,1.907,4.251,4.251V411.538z M601.89,421.002c-4.388,0-7.96,3.572-7.96,7.96
		c0,4.38,3.572,7.952,7.96,7.952c4.388,0,7.96-3.572,7.96-7.952C609.85,424.573,606.278,421.002,601.89,421.002z M601.89,436.881
		c-4.364,0-7.92-3.556-7.92-7.92c0-4.372,3.556-7.928,7.92-7.928c4.372,0,7.928,3.556,7.928,7.928
		C609.818,433.326,606.262,436.881,601.89,436.881z M568.587,406.067h-23.945c-0.945,0-1.818,0.307-2.521,0.832
		c-1.067,0.776-1.762,2.037-1.762,3.451v1.188c0,2.36,1.923,4.283,4.283,4.283h23.945c2.36,0,4.283-1.923,4.283-4.283v-1.188
		C572.87,407.991,570.947,406.067,568.587,406.067z M572.837,411.538c0,2.344-1.907,4.243-4.251,4.243h-23.945
		c-2.344,0-4.251-1.899-4.251-4.243v-1.188c0-1.406,0.687-2.659,1.745-3.426c0.703-0.517,1.568-0.824,2.505-0.824h23.945
		c2.344,0,4.251,1.907,4.251,4.251V411.538z M538.484,450.87h-48.593c-2.368,0-4.291,1.915-4.291,4.283v18.248
		c0,2.36,1.923,4.283,4.291,4.283h48.593c2.36,0,4.283-1.923,4.283-4.283v-18.248C542.767,452.785,540.844,450.87,538.484,450.87z
		 M542.726,473.401c0,2.344-1.899,4.251-4.243,4.251h-48.593c-2.344,0-4.251-1.907-4.251-4.251v-18.248
		c0-2.344,1.907-4.251,4.251-4.251h48.593c2.344,0,4.243,1.907,4.243,4.251V473.401z"/>
	<path fill="#FFFFFF" d="M638.119,280.467c-0.105-0.113-0.218-0.226-0.331-0.331c-2.691-2.602-6.352-4.21-10.393-4.21h-30.709
		c-37.166-0.711-53.013-15.831-55.357-18.466c-18.967-21.812-45.514-21.812-45.514-21.812l-34.782-0.59h-0.065l-0.113,63.527
		l0.146-0.081v185.944c0,8.251,6.691,14.934,14.934,14.934h151.46c2.117,0,4.138-0.444,5.964-1.245
		c5.285-2.295,8.97-7.564,8.97-13.69V290.86C642.329,286.819,640.721,283.158,638.119,280.467z M542.767,473.401
		c0,2.36-1.923,4.283-4.283,4.283h-48.593c-2.368,0-4.291-1.923-4.291-4.283v-18.248c0-2.368,1.923-4.283,4.291-4.283h48.593
		c2.36,0,4.283,1.915,4.283,4.283V1304.896473.401z M540.359,411.538v-1.188c0-1.414,0.695-2.675,1.762-3.451
		c0.703-0.525,1.576-0.832,2.521-0.832h23.945c2.36,0,4.283,1.923,4.283,4.283v1.188c0,2.36-1.923,4.283-4.283,4.283h-23.945
		C542.282,415.821,540.359,413.898,540.359,411.538z M611.272,473.401c0,0.768-0.202,1.479-0.558,2.101
		c-0.735,1.301-2.134,2.182-3.726,2.182h-48.593c-2.368,0-4.291-1.923-4.291-4.283v-18.248c0-2.368,1.923-4.283,4.291-4.283h48.593
		c2.36,0,4.283,1.915,4.283,4.283V473.401z M606.747,415.821H582.81c-2.368,0-4.283-1.923-4.283-4.283v-1.188
		c0-2.36,1.915-4.283,4.283-4.283h23.937c2.36,0,4.291,1.923,4.291,4.283v1.188C611.038,413.898,609.107,415.821,606.747,415.821z
		 M609.85,428.962c0,4.38-3.572,7.952-7.96,7.952c-4.388,0-7.96-3.572-7.96-7.952c0-4.388,3.572-7.96,7.96-7.96
		C606.278,421.002,609.85,424.573,609.85,428.962z M613.172,353.296c0,2.319-1.932,4.21-4.291,4.21h-121.6
		c-2.36,0-4.283-1.891-4.283-4.21v-53.127c0-2.319,1.923-4.21,4.283-4.21h121.6c2.36,0,4.291,1.891,4.291,4.21V353.296z"/>
</g>
<g transform="matrix(1.3333333,0,0,-1.3333333,279,407)" id="g10">
	<g transform="scale(0.1)" id="g12">
		<path
         id="path14"
         style="fill:#FFFFFF;fill-opacity:1;fill-rule:nonzero;stroke:none"
         d="M 901.543,500.352 500.352,901.527 c -23.094,23.11 -60.567,23.11 -83.692,0 L 333.359,818.211 439.031,712.535 c 24.563,8.293 52.727,2.727 72.297,-16.847 19.688,-19.696 25.203,-48.102 16.699,-72.75 L 629.883,521.094 c 24.648,8.496 53.066,3.004 72.754,-16.711 27.5,-27.492 27.5,-72.059 0,-99.574 -27.52,-27.516 -72.078,-27.516 -99.61,0 -20.683,20.703 -25.8,51.097 -15.312,76.582 l -95,94.992 V 326.414 c 6.699,-3.32 13.027,-7.742 18.613,-13.312 27.5,-27.497 27.5,-72.059 0,-99.598 -27.5,-27.488 -72.09,-27.488 -99.57,0 -27.5,27.539 -27.5,72.101 0,99.598 6.797,6.789 14.668,11.925 23.066,15.363 v 252.281 c -8.398,3.438 -16.25,8.531 -23.066,15.367 -20.828,20.821 -25.84,51.395 -15.156,76.977 L 292.422,777.285 17.3242,502.211 c -23.10545,-23.129 -23.10545,-60.602 0,-83.711 L 418.535,17.3242 c 23.098,-23.10545 60.559,-23.10545 83.692,0 L 901.543,416.641 c 23.113,23.113 23.113,60.605 0,83.711" />
	</g>
</g>
</svg>
